<svg id="calendar-icon" xmlns="http://www.w3.org/2000/svg" width="16.599" height="18.54" viewBox="0 0 16.599 18.54">
  <path id="Path_1034" data-name="Path 1034" d="M.282,2.217H3.7l0-.059V.623A.726.726,0,0,1,4.491,0a.728.728,0,0,1,.794.623V2.158l0,.059H11.1l0-.059V.623A.725.725,0,0,1,11.89,0a.728.728,0,0,1,.794.623V2.158l0,.059h3.638A.283.283,0,0,1,16.6,2.5V5.435a.283.283,0,0,1-.282.282H.282A.285.285,0,0,1,0,5.434V2.5a.281.281,0,0,1,.282-.281ZM.071,6.366H16.53a.069.069,0,0,1,.069.069h0V18.471a.07.07,0,0,1-.069.069H.071A.072.072,0,0,1,0,18.471V6.437a.071.071,0,0,1,.071-.071ZM14.677,7.961H12.61a.219.219,0,0,0-.226.211v1.922a.219.219,0,0,0,.226.211h2.069a.221.221,0,0,0,.228-.211V8.172a.223.223,0,0,0-.229-.211ZM1.847,11.306H3.914a.221.221,0,0,1,.228.211V13.44a.221.221,0,0,1-.228.211h-2a.219.219,0,0,1-.226-.211V11.448a.22.22,0,0,1,.226-.211l-.071.069Zm0,3.347H3.914a.221.221,0,0,1,.228.211v1.922A.221.221,0,0,1,3.914,17h-2a.219.219,0,0,1-.226-.211V14.864a.22.22,0,0,1,.226-.211Zm0-6.692H3.914a.221.221,0,0,1,.228.211v1.922a.221.221,0,0,1-.228.211h-2a.219.219,0,0,1-.226-.211V8.172a.22.22,0,0,1,.226-.211Zm3.588,0H7.5a.219.219,0,0,1,.226.211v1.922a.22.22,0,0,1-.226.211H5.435a.221.221,0,0,1-.228-.211V8.172a.221.221,0,0,1,.228-.211Zm0,3.345H7.5a.219.219,0,0,1,.226.211V13.44a.22.22,0,0,1-.226.211H5.435a.221.221,0,0,1-.228-.211V11.448a.221.221,0,0,1,.228-.211v.069Zm0,3.347H7.5a.219.219,0,0,1,.226.211v1.922A.22.22,0,0,1,7.5,17H5.435a.221.221,0,0,1-.228-.211V14.864a.221.221,0,0,1,.228-.211ZM9.022,7.961H11.09a.221.221,0,0,1,.228.211v1.922a.221.221,0,0,1-.228.211H9.022a.221.221,0,0,1-.228-.211V8.172a.222.222,0,0,1,.228-.211Zm0,3.345H11.09a.221.221,0,0,1,.228.211V13.44a.221.221,0,0,1-.228.211H9.022a.221.221,0,0,1-.228-.211V11.448a.221.221,0,0,1,.228-.211v.069Zm5.655,0H12.61a.219.219,0,0,0-.226.211V13.44a.219.219,0,0,0,.226.211h2.069a.221.221,0,0,0,.228-.211V11.447a.221.221,0,0,0-.228-.211l0,.071Zm0,3.347H12.61a.219.219,0,0,0-.226.211v1.922A.219.219,0,0,0,12.61,17h2.069a.221.221,0,0,0,.228-.211V14.793a.221.221,0,0,0-.228-.211l0,.071Zm-5.655,0H11.09a.221.221,0,0,1,.228.211v1.922A.221.221,0,0,1,11.09,17H9.022a.221.221,0,0,1-.228-.211V14.864a.222.222,0,0,1,.228-.211ZM1.058,7.2H15.682a.144.144,0,0,1,.142.142V17.567a.146.146,0,0,1-.142.142H.917a.144.144,0,0,1-.142-.142V7.481A.283.283,0,0,1,1.058,7.2ZM11.89,4.436a.728.728,0,0,0,.794-.623V2.28l0-.062H11.1l0,.062V3.813a.725.725,0,0,0,.792.623Zm-7.4,0a.728.728,0,0,0,.794-.623V2.28l0-.062H3.7l0,.062V3.813a.726.726,0,0,0,.794.623Z" fill="rgba(30,215,96,0.8)" fill-rule="evenodd"/>
</svg>

